<?xml version="1.0" encoding="UTF-8" standalone="no"?>
<!-- Created with Inkscape (http://www.inkscape.org/) -->

<svg
   xmlns:dc="http://purl.org/dc/elements/1.1/"
   xmlns:cc="http://creativecommons.org/ns#"
   xmlns:rdf="http://www.w3.org/1999/02/22-rdf-syntax-ns#"
   xmlns:svg="http://www.w3.org/2000/svg"
   xmlns="http://www.w3.org/2000/svg"
   xmlns:sodipodi="http://sodipodi.sourceforge.net/DTD/sodipodi-0.dtd"
   xmlns:inkscape="http://www.inkscape.org/namespaces/inkscape"
   width="502"
   height="165.08743"
   viewBox="0 0 132.82083 43.679382"
   version="1.1"
   id="svg4351"
   inkscape:version="0.92.4 (5da689c313, 2019-01-14)"
   sodipodi:docname="British Museum logo.svg">
  <defs
     id="defs4345" />
  <sodipodi:namedview
     id="base"
     pagecolor="#ffffff"
     bordercolor="#666666"
     borderopacity="1.0"
     inkscape:pageopacity="0.0"
     inkscape:pageshadow="2"
     inkscape:zoom="1.4"
     inkscape:cx="409.53809"
     inkscape:cy="-52.781897"
     inkscape:document-units="mm"
     inkscape:current-layer="layer1"
     showgrid="false"
     units="px"
     fit-margin-top="1"
     fit-margin-left="1"
     fit-margin-right="1"
     fit-margin-bottom="1"
     inkscape:window-width="1920"
     inkscape:window-height="1001"
     inkscape:window-x="-9"
     inkscape:window-y="-9"
     inkscape:window-maximized="1" />
  <metadata
     id="metadata4348">
    <rdf:RDF>
      <cc:Work
         rdf:about="">
        <dc:format>image/svg+xml</dc:format>
        <dc:type
           rdf:resource="http://purl.org/dc/dcmitype/StillImage" />
        <dc:title></dc:title>
      </cc:Work>
    </rdf:RDF>
  </metadata>
  <g
     inkscape:label="Layer 1"
     inkscape:groupmode="layer"
     id="layer1"
     transform="translate(-43.954302,-71.75877)">
    <g
       id="g4318"
       transform="matrix(0.61117936,0,0,0.61117936,-50.270415,-2.8771536)">
      <path
         style="fill:#211e1e;fill-opacity:1;fill-rule:nonzero;stroke:none"
         d="m 159.50781,154.91016 v -1.10547 h 1.16797 c 1.29297,0 1.875,-0.16407 2.17188,-0.73047 0.30859,-0.58203 0.32812,-1.67578 0.32421,-3.54297 v -14.27734 h -4.01562 c -1.26172,0.004 -1.9375,0.27343 -2.41016,0.89062 -0.47656,0.62109 -0.74218,1.625 -1.08203,3.08203 l -0.0195,0.0859 h -0.92578 v -0.10938 h 0.11328 -0.11328 v 0.10938 h -0.11719 l 0.0977,-5.17969 h 20.15234 l 0.12891,5.17969 h -1.01953 l -0.0156,-0.0937 c -0.32422,-1.94141 -0.80078,-2.92578 -1.42578,-3.42188 -0.625,-0.5 -1.44141,-0.54687 -2.51172,-0.54687 -0.19531,0 -0.39844,0.004 -0.60547,0.004 h -3.02343 v 14.00781 c -0.004,1.98828 0.008,3.14844 0.3125,3.76953 0.29687,0.60547 0.875,0.76953 2.17968,0.77344 h 1.14063 v 1.10547 z m 0,0"
         id="path2846"
         inkscape:connector-curvature="0" />
      <path
         style="fill:#211e1e;fill-opacity:1;fill-rule:nonzero;stroke:none"
         d="m 184.28906,154.91016 v -1.10547 h 0.11328 c 1.08203,0.004 1.5625,-0.0352 1.77735,-0.41016 0.24218,-0.38672 0.25781,-1.26172 0.2539,-2.96875 v -3.69531 c 0,-1.07813 -0.0469,-2.71094 -1.13672,-3.3125 -0.66796,-0.3711 -1.55078,-0.40235 -2.25781,-0.13672 -0.58594,0.22266 -1.10156,0.60547 -1.55469,1.03125 -0.24609,0.23047 -0.47656,0.46875 -0.69921,0.71875 -0.11719,0.13281 -0.61329,0.57031 -0.61329,0.74609 v 4.64844 c -0.004,1.66016 0.008,2.53516 0.23047,2.9375 0.19922,0.39063 0.625,0.44141 1.60938,0.44141 h 0.11328 v 1.10547 h -6.52734 v -1.10547 h 0.11328 c 1.09765,0.004 1.58984,-0.0273 1.80468,-0.39844 0.2461,-0.38281 0.26172,-1.25781 0.25782,-2.98047 v -12.09766 c 0,-1.08593 -0.008,-1.80078 -0.24219,-2.19921 -0.22656,-0.39454 -0.67578,-0.57032 -1.69531,-0.57422 h -0.11328 v -1.08203 h 0.11328 c 1.25781,0.004 2.99218,-0.27735 3.96484,-0.64454 l 0.0195,-0.008 h 0.35156 v 10.34375 c 1.39454,-1.53125 2.80079,-2.39453 4.38672,-2.39453 1.39844,0 2.47657,0.37109 3.19532,1.11719 0.72265,0.74609 1.07812,1.85156 1.07812,3.28125 v 4.25781 c -0.004,1.70703 0.0117,2.58203 0.24609,2.96875 0.21485,0.375 0.6836,0.41406 1.75,0.41016 h 0.11329 v 1.10547 z m 0,0"
         id="path2848"
         inkscape:connector-curvature="0" />
      <path
         style="fill:#211e1e;fill-opacity:1;fill-rule:nonzero;stroke:none"
         d="m 193.94531,153.76953 c -1.22265,-1.10547 -2.10156,-2.79297 -2.09765,-5.08984 0,-1.94922 0.64062,-3.67578 1.73828,-4.91797 1.09375,-1.23828 2.64062,-1.99219 4.42578,-1.99219 3.29297,0 5.20703,2.57813 5.29687,4.96484 l 0.004,0.11719 h -8.67188 c -0.0273,0.40625 -0.0547,0.86328 -0.0547,1.34375 0,0.78906 0.0156,2.30078 0.52343,3.60156 0.51172,1.30079 1.47657,2.375 3.42969,2.37891 0.67188,0 2.61328,-0.10547 3.72656,-2.22656 l 0.0312,-0.0586 h 1.03907 l -0.0273,0.13672 c -0.10547,0.47657 -1.34765,3.375 -5.17187,3.37891 -1.39453,0 -2.96485,-0.53125 -4.19141,-1.63672 m 6.48828,-7.98047 c 0.0234,-0.125 0.043,-0.19922 0.043,-0.39844 v -0.0312 c -0.0234,-1.80078 -1.38281,-2.48046 -2.58984,-2.48828 -2.34375,-0.004 -2.98828,2.03125 -3.15625,2.91797 z m 0,0"
         id="path2850"
         inkscape:connector-curvature="0" />
      <path
         style="fill:#211e1e;fill-opacity:1;fill-rule:nonzero;stroke:none"
         d="m 207.94922,154.73828 v -1.24609 h 1.19922 c 4.02343,0 4.02343,-1.05469 4.02343,-7.1836 v -15.28125 c 0,-6.94531 -0.47265,-6.71484 -5.21484,-6.71484 v -1.28125 c 3.40234,-0.14453 8.75781,-0.33594 11.48828,-0.33594 1.82031,0 12.98047,-0.38281 12.98047,7.56641 0,6.08203 -6.72656,7.13672 -8.83203,7.42578 5.31641,0.28516 10.55469,2.34766 10.55469,8.33203 0,6.99609 -6.12891,8.71875 -11.6836,8.71875 z m 9.82031,-17.625 c 6.08203,0.14063 9.72266,-0.67187 9.72266,-6.60937 0,-5.75 -3.35157,-6.95703 -9.72266,-6.38282 z m 0,8.14063 c 0,7.28125 0,8.1914 3.83203,8.1914 7.03906,0 7.42188,-4.83984 7.42188,-7.47265 0,-5.125 -2.20313,-8 -11.25391,-7.51954 z m 0,0"
         id="path2852"
         inkscape:connector-curvature="0" />
      <path
         style="fill:#211e1e;fill-opacity:1;fill-rule:nonzero;stroke:none"
         d="m 243.17578,148.17578 c 0,4.88672 0,5.31641 2.82422,5.31641 h 0.67187 v 1.24609 h -10.15625 v -1.24609 c 3.30469,0 3.30469,0 3.30469,-5.31641 v -5.41016 c 0,-5.3164 0,-5.27734 -3.30469,-5.27734 v -1.28516 c 2.15625,-0.28906 4.64844,-1.05468 5.41407,-1.29296 l 0.33593,-0.0977 c 0.23829,0.76562 0.66797,2.16406 0.66797,4.89453 1.48438,-3.54297 4.35938,-4.89453 6.13282,-4.89453 2.20312,0 3.35156,1.77344 3.35156,2.92187 0,0.86329 -0.66797,1.62891 -1.57813,1.62891 -1.15234,0 -1.48828,-0.95703 -1.67968,-1.4375 -0.23829,-0.52734 -0.57422,-1.24219 -1.33985,-1.24219 -1.33984,0 -4.64453,2.29688 -4.64453,7.1836 z m 0,0"
         id="path2854"
         inkscape:connector-curvature="0" />
      <path
         style="fill:#211e1e;fill-opacity:1;fill-rule:nonzero;stroke:none"
         d="m 260.09375,148.17578 c 0,4.16797 -0.33594,5.31641 2.63281,5.31641 h 0.71875 v 1.24609 h -10.34375 v -1.24609 h 0.8125 c 2.15625,0 2.82422,-0.0937 2.82422,-3.44922 v -7.42969 c 0,-5.26953 -0.0469,-5.26953 -3.39844,-5.26953 v -1.28516 c 1.4375,-0.0469 4.26172,-0.67187 6.27344,-1.24609 h 0.48047 z m -2.15625,-25.625 c 1.33984,0 2.39453,1.14844 2.39453,2.49219 0,1.33984 -1.05469,2.48828 -2.39453,2.48828 -1.33984,0 -2.44141,-1.14844 -2.44141,-2.48828 0,-1.34375 1.05469,-2.49219 2.44141,-2.49219"
         id="path2856"
         inkscape:connector-curvature="0" />
      <path
         style="fill:#211e1e;fill-opacity:1;fill-rule:nonzero;stroke:none"
         d="m 271.11719,137.34375 v 10.61719 c 0,2.95312 0,5.65234 2.875,5.65234 1.49218,0 2.26562,-1.28516 2.66406,-1.91797 l 0.97266,0.69531 c -1.48438,3.11329 -4.64454,3.11329 -4.98047,3.11329 -1.77344,0 -3.44922,-0.95704 -4.16407,-2.34766 -0.625,-1.14844 -0.71875,-2.15234 -0.71875,-5.65234 v -10.16016 h -2.78125 v -1.28516 c 2.10938,-0.0977 4.46094,-1.74218 5.17188,-6.46484 h 0.96094 v 6.45312 h 5.64062 v 1.29688 z m 0,0"
         id="path2858"
         inkscape:connector-curvature="0" />
      <path
         style="fill:#211e1e;fill-opacity:1;fill-rule:nonzero;stroke:none"
         d="m 285.55859,147.98437 c 0,4.16797 -0.33593,5.50782 2.63282,5.50782 h 0.71875 v 1.24609 H 278.5625 v -1.24609 h 0.81641 c 2.15625,0 2.82421,-0.48047 2.82421,-3.83203 v -7.05079 c 0,-5.26562 -0.28515,-5.26562 -3.64062,-5.26562 v -1.28516 c 1.4375,-0.0469 4.50391,-0.67187 6.51562,-1.24609 h 0.48047 z m -2.15625,-25.43359 c 1.33985,0 2.39453,1.14844 2.39453,2.49219 0,1.33984 -1.05468,2.48828 -2.39453,2.48828 -1.34375,0 -2.4414,-1.14844 -2.4414,-2.48828 0,-1.34375 1.05078,-2.49219 2.4414,-2.49219"
         id="path2860"
         inkscape:connector-curvature="0" />
      <path
         style="fill:#211e1e;fill-opacity:1;fill-rule:nonzero;stroke:none"
         d="m 291.69922,149.03906 h 1.00781 c 0.48047,2.30078 2.15234,5.21875 5.55469,5.21875 3.0664,0 3.54297,-2.34375 3.54297,-3.20703 0,-2.49219 -2.10547,-3.49609 -4.64453,-4.74219 -2.30079,-1.14843 -5.41407,-2.68359 -5.41407,-6.17968 0,-2.29688 1.02344,-5.31641 5.125,-5.31641 1.72657,0 3.06641,0.71875 4.16797,2.01172 0.38281,-0.42969 0.86328,-1.57813 0.91016,-1.67578 h 0.86328 v 5.9375 h -0.96094 c -0.38281,-1.82032 -1.8164,-4.98828 -4.88281,-4.98828 -2.05859,0 -3.11328,1.30078 -3.11328,2.6914 0,2.20313 2.29687,3.25781 4.5039,4.26172 2.53516,1.14844 5.7461,2.63281 5.7461,6.80078 0,3.57813 -2.39453,5.65235 -5.79688,5.65235 -2.48828,0 -3.66406,-0.98047 -4.76953,-2.03516 -0.47656,0.52734 -0.83203,1.41406 -0.92969,1.84375 h -0.91015 z m 0,0"
         id="path2862"
         inkscape:connector-curvature="0" />
      <path
         style="fill:#211e1e;fill-opacity:1;fill-rule:nonzero;stroke:none"
         d="m 275.08594,186.6875 h 1.00781 c 0.48047,2.29687 2.15625,5.21875 5.55469,5.21875 3.0664,0 3.54297,-2.34375 3.54297,-3.20703 0,-2.49219 -2.10547,-3.4961 -4.64454,-4.74219 -2.29687,-1.14844 -5.3125,-2.68359 -5.41015,-6.17969 -0.0742,-2.42578 1.16406,-5.3164 5.125,-5.3164 1.72265,0 3.0625,0.71875 4.16406,2.01172 0.38281,-0.42969 0.86328,-1.58204 0.91016,-1.67579 h 0.86328 v 5.9375 h -0.95703 c -0.38672,-1.82031 -1.82032,-4.98828 -4.88672,-4.98828 -2.0586,0 -3.11328,1.30078 -3.11328,2.69141 0,2.20312 2.30078,3.25781 4.5039,4.26172 2.53907,1.15234 5.7461,2.63281 5.7461,6.80078 0,3.30469 -2.39453,5.65234 -5.79297,5.65234 -2.49219,0 -3.625,-1.05078 -4.73047,-2.10547 -0.47656,0.52735 -0.875,1.48438 -0.97266,1.91407 h -0.91015 z m 0,0"
         id="path2864"
         inkscape:connector-curvature="0" />
      <path
         style="fill:#211e1e;fill-opacity:1;fill-rule:nonzero;stroke:none"
         d="m 325.81641,147.98437 c 0,5.26954 0,5.50782 3.2539,5.50782 v 1.24609 h -9.91406 v -1.24609 c 3.30469,0 3.30469,-0.23828 3.30469,-5.50782 v -5.75781 c 0,-4.45312 -1.39063,-5.875 -4.16407,-5.74609 -2.20312,0.10156 -4.3125,2.25 -5.84375,4.21484 v 7.28906 c 0,5.125 0,5.50782 3.01563,5.50782 v 1.24609 h -9.72266 v -1.24609 c 3.35157,0 3.35157,-0.19141 3.35157,-5.50782 v -18.6875 c 0,-3.35546 0,-4.45703 -3.16016,-4.45703 v -1.28125 c 1.96484,0 4.64453,-0.43359 6.17969,-1.00781 h 0.33593 V 138.75 c 2.28516,-2.70703 4.45313,-3.9375 6.94141,-3.9375 4.26563,0 6.42188,2.25 6.42188,6.60937 z m 0,0"
         id="path2866"
         inkscape:connector-curvature="0" />
      <path
         style="fill:#211e1e;fill-opacity:1;fill-rule:nonzero;stroke:none"
         d="m 240.80078,160.67969 h 9.76953 v 1.24609 H 249.375 c -4.16797,0 -4.26563,0.38281 -4.26563,6.84766 v 15.17968 c 0,6.13282 0,7.1836 4.02344,7.1836 h 1.4375 v 1.25 h -15.18359 v -1.25 h 1.10156 c 4.02344,0 4.02344,-1.05078 4.02344,-7.1836 v -19.5664 l -12.55078,28 h -1.10157 L 214.3125,163.85937 v 21.00391 c 0,4.35938 1.4375,5.94141 4.98047,6.27344 v 1.25 h -11.30469 v -1.25 c 2.92188,-0.28516 4.98047,-1.19531 4.98047,-6.5586 v -15.99609 c 0,-6.41797 0.0508,-6.65625 -4.11719,-6.65625 h -0.86328 v -1.24609 h 9.62891 l 11.51562,25.9375 z m 0,0"
         id="path2868"
         inkscape:connector-curvature="0" />
      <path
         style="fill:#211e1e;fill-opacity:1;fill-rule:nonzero;stroke:none"
         d="m 269.41406,185.5625 c 0,5.125 0,5.55469 2.92188,5.55469 v 1.26953 c -1.62891,0 -3.83203,0.14453 -5.125,0.76562 H 266.875 c -0.76563,-1.38672 -0.8125,-3.28515 -0.8125,-4.38672 -1.19922,2.15625 -3.83594,4.38672 -7.33984,4.38672 -5.55469,0 -5.9375,-4.40625 -5.9375,-6.41797 v -6.7539 c 0,-5.21875 0,-5.50781 -3.16016,-5.50781 v -1.2461 h 6.51172 v 13.25 c 0,1.81641 0,4.83203 3.6914,4.83203 1.29297,0 6.23438,-1.14843 6.23438,-6.84765 v -4.48047 c 0,-5.31641 0,-5.50781 -3.35547,-5.50781 v -1.2461 h 6.70703 z m 0,0"
         id="path2870"
         inkscape:connector-curvature="0" />
      <path
         style="fill:#211e1e;fill-opacity:1;fill-rule:nonzero;stroke:none"
         d="m 295.01172,179.95312 c -0.0469,0.67188 -0.0977,1.22657 -0.0977,2.03907 0,2.4414 0.0977,9.91406 6.27735,9.91406 1.05468,0 4.30859,-0.0937 6.08203,-3.83203 h 1.10156 c -0.14453,0.67187 -2.01172,5.07812 -7.80859,5.07812 -4.21485,0 -9.53125,-3.20703 -9.53125,-10.20312 0,-5.9375 3.92968,-10.48828 9.33984,-10.48828 4.98437,0 7.85547,3.89843 8,7.49218 z m 9.24219,-1.17187 c 0.0508,-0.28516 0.0976,-0.52344 0.0976,-0.95703 0,-3.16016 -2.25,-4.3086 -4.16797,-4.3086 -4.26172,0 -4.88672,4.02344 -5.07422,5.26563 z m 0,0"
         id="path2872"
         inkscape:connector-curvature="0" />
      <path
         style="fill:#211e1e;fill-opacity:1;fill-rule:nonzero;stroke:none"
         d="m 329.57812,185.58203 c 0,5.125 0,5.55469 2.92188,5.55469 v 1.25 c -1.62891,0 -3.83203,0.14453 -5.125,0.76562 h -0.33594 c -0.76562,-1.39062 -0.8125,-3.49609 -0.8125,-4.59765 -1.19531,2.15625 -3.83203,4.59765 -7.32812,4.59765 -5.5586,0 -5.94141,-4.40625 -5.94141,-6.41797 V 180 c 0,-5.21875 0,-5.50781 -3.16016,-5.50781 v -1.26563 l 6.51563,0.21094 v 13.05859 c 0,1.79688 0,4.8125 3.6875,4.8125 1.29297,0 6.22656,-1.14843 6.22656,-6.84765 V 180 c 0,-5.31641 0,-5.50781 -3.35156,-5.50781 v -1.26563 h 6.70312 z m 0,0"
         id="path2874"
         inkscape:connector-curvature="0" />
      <path
         style="fill:#211e1e;fill-opacity:1;fill-rule:nonzero;stroke:none"
         d="m 347.25,174.30078 c -3.21094,0 -5.22266,2.68359 -6.17969,4.12109 v 7.20704 c 0,5.17578 0,5.50781 3.16016,5.50781 v 1.25 h -9.67188 v -1.25 c 3.16016,0 3.16016,-0.28516 3.16016,-5.50781 v -5.3125 c 0,-5.21875 0,-5.50782 -3.16016,-5.50782 v -1.24609 c 1.625,-0.19141 3.6875,-0.67188 5.26563,-1.10156 h 0.625 c 0.38281,1.10156 0.57422,2.96875 0.62109,3.97656 2.01172,-2.39453 4.50391,-3.97656 7.42578,-3.97656 4.3086,0 5.55469,2.63281 5.79297,4.16797 2.30078,-2.6836 4.69531,-4.16797 7.61719,-4.16797 4.21484,0 5.98828,2.30078 5.98828,6.22656 v 6.94141 c 0,5.125 0,5.50781 3.16016,5.50781 v 1.25 h -9.82032 v -1.25 c 3.30469,0 3.30469,-0.23828 3.30469,-5.50781 v -5.60157 c 0,-2.53515 0,-5.74609 -3.8789,-5.74609 -3.20704,0 -5.21875,2.68359 -6.17579,4.11719 v 7.23047 c 0,5.17578 0,5.50781 3.16016,5.50781 v 1.25 h -9.67578 v -1.25 c 3.16016,0 3.16016,-0.38281 3.16016,-5.50781 v -5.29297 c 0,-2.10547 0.38281,-6.03516 -3.87891,-6.03516"
         id="path2876"
         inkscape:connector-curvature="0" />
    </g>
  </g>
</svg>
