<svg xmlns="http://www.w3.org/2000/svg" data-name="Group 562" viewBox="0 0 304.969 25.691">
    <defs></defs>
    <defs>
        <clipPath id="a">
            <path d="M0 13.56h304.969v-25.691H0z" data-name="Path 19"
                transform="translate(0 12.131)"></path>
        </clipPath>
    </defs>
    <g clip-path="url(#a)" data-name="Group 22">
        <g data-name="Group 21">
            <path
                d="M7.687 14.627a19.156 19.156 0 00-2.15.1v5.771a23.626 23.626 0 002.385.1c2.887 0 4.263-1.118 4.263-2.984 0-1.9-1.478-2.988-4.5-2.988m.436-9.435a14.313 14.313 0 00-2.584.237v5.194a16.8 16.8 0 002.114.1c2.755.002 4.132-1.015 4.132-2.815 0-1.493-1.243-2.715-3.66-2.715M7.35 25.521a63.4 63.4 0 01-7.351-.514V.707A55.018 55.018 0 016.88.163c7.152 0 10.775 3.225 10.775 6.686 0 2.613-1.442 4.38-4.229 5.534 3.357 1.019 4.935 2.986 4.935 5.837 0 3.869-3.626 7.3-11.011 7.3M46.911.407v24.877h15.577v-5.259h-9.87v-4.854h9v-5.023h-9V5.707h9.869v-5.3zm21.958 0v5.3h7.385v19.577h5.708V5.707h7.385v-5.3zm37.66 25.283c-8.024 0-13.463-5.464-13.463-12.828C93.066 5.462 98.505 0 106.529 0a14.955 14.955 0 017.686 2.171l-1.747 4.889a12.185 12.185 0 00-5.873-1.662c-4.6 0-7.453 2.851-7.453 7.465s2.853 7.467 7.453 7.467a12.087 12.087 0 006.142-1.834l1.713 4.888a14.894 14.894 0 01-7.923 2.306M135.936.407v9.741h-9.465V.407h-5.71v24.877h5.71v-9.977h9.465v9.977h5.708V.407zm91.276 1.614a26.267 26.267 0 00-3.391.237v12.555a28.138 28.138 0 003.09.239c4.935 0 7.554-2.817 7.554-6.722 0-3.325-2.486-6.311-7.254-6.311m-.368 14.7a28.91 28.91 0 01-3.022-.2v8.857h-1.879V.66a40.21 40.21 0 015.07-.337c6.343 0 9.467 3.664 9.467 7.906 0 4.99-3.594 8.486-9.636 8.486m22.193-12.641l5.07 12.182h-10.138zm-.133-3.867l-10.774 25.28h1.98l3.158-7.6h11.546l3.192 7.6h2.012L249.239.207zm22.307 1.815a20.437 20.437 0 00-3.558.3v11.235a28.368 28.368 0 003.088.2c4.932 0 7.586-2.34 7.586-5.972 0-3.327-2.45-5.769-7.118-5.769m8.293 23.349l-6.713-10.111a14.332 14.332 0 01-2.15.138c-.87 0-2.181-.068-2.986-.138v10.114h-1.915V.727a38.18 38.18 0 015.271-.4c6.074 0 9.331 3.02 9.331 7.364 0 3.395-2.048 6.074-5.705 7.163l7.148 10.519zM302.081.407l-11.512 11.572V.407h-1.881v24.877h1.881V12.998l11.915 12.286h2.484l-12.586-12.8L304.498.407zm-277.039 0v24.877h15.577v-5.259H30.75V.407zm183.867 0l-5.034 9.537L198.84.407h-6.546l8.66 15v9.875h5.71v-9.84L215.32.407zm-37.367 0v24.877h15.577v-5.261h-9.869v-4.852h9v-5.023h-9V5.707h9.869v-5.3zm-21.869 0v24.877h15.577v-5.259h-9.867V.407z"
                data-name="Path 18"></path>
        </g>
    </g>
</svg>