<svg fill="#FFFFFF" xmlns="http://www.w3.org/2000/svg"  viewBox="0 0 72 72" width="64px" height="64px"><path d="M 36 12 C 22.745 12 12 22.745 12 36 C 12 49.255 22.745 60 36 60 C 49.255 60 60 49.255 60 36 C 60 22.745 49.255 12 36 12 z M 36 20 C 44.837 20 52 27.163 52 36 C 52 44.837 44.837 52 36 52 C 27.163 52 20 44.837 20 36 C 20 27.163 27.163 20 36 20 z M 42.363281 26.634766 C 41.595406 26.634891 40.827687 26.928172 40.242188 27.513672 L 36 31.757812 C 34.185148 29.943072 31.970479 27.727958 31.757812 27.515625 C 30.585812 26.344625 28.685672 26.343625 27.513672 27.515625 C 26.341672 28.687625 26.342672 30.586813 27.513672 31.757812 L 31.755859 36 L 27.513672 40.242188 C 26.342672 41.414187 26.341672 43.312375 27.513672 44.484375 C 28.685672 45.656375 30.586813 45.655375 31.757812 44.484375 C 31.970479 44.272042 34.185148 42.056928 36 40.242188 L 40.242188 44.486328 C 41.414187 45.657328 43.312375 45.658328 44.484375 44.486328 C 45.656375 43.314328 45.655375 41.413187 44.484375 40.242188 C 44.272042 40.029521 42.056928 37.814852 40.242188 36 C 42.056928 34.185148 44.272042 31.970479 44.484375 31.757812 C 45.655375 30.585812 45.656375 28.685672 44.484375 27.513672 C 43.898375 26.927672 43.131156 26.634641 42.363281 26.634766 z"/></svg>