<?xml version="1.0" encoding="UTF-8"?> <svg xmlns="http://www.w3.org/2000/svg" width="179.004" height="65.682" viewBox="0 0 179.004 65.682"><g transform="translate(-36 -40.3)"><g transform="translate(75.48 48.012)"><path d="M211.537,198.686a3.8,3.8,0,1,0,0-7.594h-3.561v7.618h3.561Zm8.773-3.8c0,5-3.231,8.089-8.42,8.089h-3.915V210.6H203.4V186.8h8.49c5.189,0,8.42,3.09,8.42,8.089" transform="translate(-203.4 -159.961)"></path><path d="M284.839,217.165c1.132-1.84,3.373-2.759,6.108-2.453v4.316c-3.538-.637-6.108.755-6.108,4.481v8.349H280.5V214.877h4.339Z" transform="translate(-262.317 -181.246)"></path><path d="M338.267,222.333c0-3-1.486-5.165-4.41-5.165-2.948,0-4.387,2.1-4.387,5.165,0,3.09,1.415,5.165,4.387,5.165,2.924,0,4.41-2.146,4.41-5.165m-13.467,0a9.08,9.08,0,1,1,9.056,9.033,8.7,8.7,0,0,1-9.056-9.033" transform="translate(-296.169 -180.211)"></path><path d="M393.932,186.03a2.823,2.823,0,0,1,2.83-2.83,2.869,2.869,0,0,1,2.83,2.83,2.823,2.823,0,0,1-2.83,2.83,2.794,2.794,0,0,1-2.83-2.83M390.3,215.039V211.1c.307.024.613.071.873.071,2.453,0,3.372-1.84,3.372-4.481V190.865h4.34V206.36c0,4.622-1.486,8.82-6.887,8.82a15.424,15.424,0,0,1-1.7-.141" transform="translate(-346.221 -157.21)"></path><path d="M437.464,220.446h7.311a3.568,3.568,0,0,0-3.49-3.561c-1.674,0-3.278,1.108-3.821,3.561m12,3.467H437.417c.519,2.476,2.24,3.726,4.08,3.726,1.863,0,3.09-.92,4.552-2.453l3,2.382a8.856,8.856,0,0,1-7.547,3.8c-5.306,0-8.8-3.467-8.8-9.033s3.939-9.033,8.561-9.033c4.717,0,8.207,3.325,8.207,8.891v1.722Z" transform="translate(-378.621 -180.211)"></path><path d="M508.2,222.409a8.653,8.653,0,0,1,8.7-9.009c3.7,0,6.321,1.7,7.618,4.882l-3.679,1.674a4.151,4.151,0,0,0-3.868-2.689c-2.311,0-4.08,1.84-4.08,5.118,0,3.3,1.769,5.118,4.08,5.118a4.151,4.151,0,0,0,3.868-2.689l3.679,1.674c-1.3,3.184-3.915,4.882-7.618,4.882-5.023.047-8.7-3.514-8.7-8.962" transform="translate(-436.315 -180.288)"></path><path d="M582.96,211.408v-7.641H579.8v-3.679h3.16V195.3H587.3v4.788h4.316v3.679H587.3v7.641a2.123,2.123,0,0,0,2.335,2.335,9.451,9.451,0,0,0,2.712-.448v3.773a12.026,12.026,0,0,1-3.42.542c-4.056,0-5.967-2.476-5.967-6.2" transform="translate(-491.029 -166.457)"></path><path d="M289.857,73c-4.41,0-6.957,3.255-6.957,8.16,0,4.882,2.523,8.113,6.934,8.113s7-3.231,7-8.113c-.024-4.906-2.571-8.16-6.981-8.16" transform="translate(-264.151 -73)"></path><path d="M395.138,75.7H391.6V90.652h3.538c3.8,0,6.556-2.523,6.556-7.476,0-4.976-2.759-7.476-6.556-7.476" transform="translate(-347.215 -75.063)"></path></g><path d="M599.6,88.752h6.6L602.831,79.2Z" transform="translate(-430.68 -29.726)"></path><g transform="translate(36 40.3)"><path d="M206.443,68.011H201.8l-5.071-16.981-5.094,16.981h-4.646l-5.967-23.773h4.929l3.467,16.344,4.953-16.344h4.693l4.929,16.3,3.49-16.3h4.929Zm-27.759,0-1.7-4.858h-9.434l-1.627,4.858h-5l8.585-23.773h5.236l8.938,23.773Zm-19.976,0H143.1V44.239h4.575v19.5h11.037Zm-34.975,0h-8.467V44.239h8.467c6.344,0,11.132,4.481,11.132,11.886,0,7.335-4.811,11.886-11.132,11.886m-22.546.542c-7.122,0-11.886-5.189-11.886-12.405,0-7.264,4.764-12.429,11.886-12.429s11.886,5.165,11.886,12.429c0,7.24-4.764,12.405-11.886,12.405m-25.777,0c-7.122,0-11.886-5.189-11.886-12.405,0-7.264,4.764-12.429,11.886-12.429S87.3,48.885,87.3,56.149c0,7.24-4.764,12.405-11.886,12.405m-13.962-.542h-3.42l-.613-2.1a10.273,10.273,0,0,1-7.193,2.641c-6.957,0-11.485-5.071-11.485-12.405,0-7.24,4.811-12.429,11.957-12.429,4.457,0,7.948,2.24,9.434,4.575l-3.49,3.019c-1.674-2.17-3.4-3.3-6.038-3.3-3.608,0-6.934,2.948-6.934,8.16,0,5,2.948,8.113,7.028,8.113,3.7,0,6.155-2.641,6.155-5.071H51.141V55.276h10.33V68.011ZM36,71.714H215V40.3H36Z" transform="translate(-36 -40.3)"></path><path d="M180.557,73c-4.41,0-6.957,3.255-6.957,8.16,0,4.882,2.524,8.113,6.934,8.113s7-3.231,7-8.113c-.024-4.906-2.571-8.16-6.981-8.16" transform="translate(-141.148 -65.288)"></path></g></g></svg> 