<svg width="211" height="36" viewBox="0 0 211 36" version="1.1" xmlns="http://www.w3.org/2000/svg"><g id="Symbols" stroke="none" stroke-width="1" fill="none" fill-rule="evenodd"><g id="Navigation/Default/_L" transform="translate(-18 -18)" fill="#E02437"><path d="M128.368 41.504c3.072 0 4.83 1.548 4.97 3.751h-1.851c-.117-1.219-1.009-2.32-3.165-2.32-1.993 0-2.814.796-2.814 1.945 0 .82.422 1.524 1.9 1.735l2.484.352c2.696.398 3.681 1.547 3.681 3.47 0 2.39-1.664 3.563-4.783 3.563-3.821 0-5.368-1.829-5.415-4.29h1.735c.14 1.594 1.031 2.86 3.728 2.86 2.062 0 2.883-.727 2.883-2.04 0-1.125-.656-1.735-2.133-1.946l-2.72-.398c-2.04-.281-3.188-1.36-3.188-3.165 0-2.18 1.735-3.517 4.688-3.517zm11.903 0c3.071 0 4.83 1.548 4.97 3.751h-1.852c-.117-1.219-1.008-2.32-3.165-2.32-1.992 0-2.813.796-2.813 1.945 0 .82.422 1.524 1.9 1.735l2.484.352c2.696.398 3.681 1.547 3.681 3.47 0 2.39-1.665 3.563-4.783 3.563-3.821 0-5.369-1.829-5.416-4.29h1.735c.141 1.594 1.032 2.86 3.728 2.86 2.063 0 2.884-.727 2.884-2.04 0-1.125-.657-1.735-2.134-1.946l-2.719-.398c-2.04-.281-3.188-1.36-3.188-3.165 0-2.18 1.734-3.517 4.688-3.517zm12.865.024c3.938 0 5.884 2.743 5.884 6.212 0 3.517-1.946 6.26-5.884 6.26-3.962 0-5.908-2.72-5.908-6.26 0-3.493 1.946-6.212 5.908-6.212zm13.45 0c3.517 0 5.276 1.946 5.463 4.665h-1.758c-.282-1.922-1.454-3.141-3.634-3.141-2.485 0-4.033 1.336-4.033 4.712 0 3.4 1.5 4.712 3.962 4.712 2.368 0 3.587-1.336 3.822-3.329h1.781c-.14 2.696-2.04 4.853-5.603 4.853-3.845 0-5.86-2.65-5.86-6.236 0-3.587 2.062-6.236 5.86-6.236zm43.69 0c3.94 0 5.885 2.743 5.885 6.212 0 3.517-1.945 6.26-5.884 6.26-3.962 0-5.908-2.72-5.908-6.26 0-3.493 1.946-6.212 5.908-6.212zm-26.378-.024c3.212 0 4.666 1.477 4.666 3.587v5.627c0 .844.023 1.758.14 2.907h-1.711c-.094-1.008-.164-1.876-.164-2.743-.446 1.407-1.688 3.048-4.407 3.048-2.251 0-3.869-1.173-3.869-3.4 0-1.899 1.032-3.094 3.564-3.517l2.977-.492c1.243-.21 1.759-.54 1.759-1.43 0-1.196-.61-2.11-2.884-2.11-2.298 0-3.165 1.079-3.282 2.603h-1.853c.07-2.486 1.829-4.08 5.064-4.08zm-67.526-3.47l5.908 15.59h-1.97l-1.523-3.985h-7.737l-1.524 3.986h-1.946l5.908-15.59h2.884zm59.75 3.869v11.722h-1.876V41.903h1.876zm17.945-2.603v2.603h3.868v1.477h-3.868v8.72h3.727v1.525h-2.766c-2.25 0-2.837-.868-2.837-2.743V43.38h-2.227v-1.055l2.391-.586.704-2.439h1.008zm7.87 2.603v11.722h-1.876V41.903h1.876zm22.798-.375c2.931 0 4.174 1.594 4.174 4.618v7.479h-1.876v-7.268c0-2.508-1.102-3.259-2.813-3.259-2.603 0-3.986 2.016-3.986 6.05v4.477h-1.875V41.903h1.875v3.07c.727-2.132 2.18-3.445 4.501-3.445zM77.724 18.723l11.66 27.103c1.944 4.534 3.588 6.676 5.332 7.673v.1H78.823v-.1c2.84-1.046 3.935-3.09 2.59-6.478l-.473-1.203c-.027-.333-2.913-7.375-5.802-14.36l-.8-1.974-4.442-10.76h7.828zM64.2 18.722v.1c-2.291 1.046-3.686 3.338-3.686 5.98V47.52c0 2.64 1.395 4.932 3.686 5.978v.1H48.956v-.1c2.291-1.046 3.736-3.339 3.736-5.978V24.203l-.004.01v-5.49l11.513-.001zM24.754 46.779c.543 3.367 3.65 5.494 7.041 6.68v.119H18v-.12c3.123-1.3 5.876-3.4 6.383-6.679zm8.108-28.057l9.22 21.24 2.454 5.532-5.265 7.442-11.264-25.584a31.797 31.797 0 0 1-.009-.022l-.379-.858-.735-1.67-.001-.002-.078-.147c-2.175-3.965-4.385-5.024-4.969-5.334a6.36 6.36 0 0 0-.881-.497v-.1h11.907zm177.415 24.33c-2.65 0-4.01 1.406-4.01 4.712 0 3.282 1.36 4.712 4.01 4.712 2.649 0 3.985-1.43 3.985-4.712 0-3.306-1.336-4.712-3.985-4.712zm-57.141 0c-2.65 0-4.01 1.406-4.01 4.712 0 3.282 1.36 4.712 4.01 4.712 2.649 0 3.985-1.43 3.985-4.712 0-3.306-1.336-4.712-3.985-4.712zm33.717 4.008c-.587.423-1.22.61-2.11.798l-1.946.398c-1.595.328-2.345.938-2.345 2.204 0 1.336.961 1.993 2.345 1.993 2.766 0 4.056-2.157 4.056-4.384zm-71.935-7.62l-3.282 8.629h6.564l-3.282-8.628zm61.485-1.406v1.946h-2.415v-1.946h2.415zm25.815 0v1.946h-2.414v-1.946h2.414zM130.04 21.868v7.268c0 2.603 1.149 3.282 2.954 3.282 2.438 0 3.821-2.18 3.821-6.072v-4.478h1.876v11.723h-1.876v-2.978c-.703 2.087-2.086 3.353-4.36 3.353-2.954 0-4.29-1.548-4.29-4.619v-7.479h1.875zm15.848-.398c3.072 0 4.83 1.547 4.97 3.75h-1.852c-.117-1.218-1.008-2.32-3.164-2.32-1.993 0-2.814.797-2.814 1.946 0 .82.422 1.524 1.9 1.735l2.484.351c2.696.399 3.681 1.548 3.681 3.47 0 2.391-1.664 3.564-4.783 3.564-3.821 0-5.368-1.83-5.415-4.29h1.734c.141 1.593 1.032 2.86 3.728 2.86 2.063 0 2.884-.727 2.884-2.04 0-1.125-.657-1.735-2.133-1.946l-2.72-.399c-2.04-.281-3.188-1.36-3.188-3.164 0-2.18 1.735-3.517 4.688-3.517zm12.801.023c3.517 0 5.51 2.415 5.51 5.838 0 .305 0 .539-.047.82h-9.425c.14 3.212 1.688 4.385 4.032 4.385 2.298 0 3.353-1.079 3.705-2.556h1.711c-.234 1.782-1.594 3.986-5.486 3.986-4.032 0-5.814-2.72-5.814-6.26 0-3.493 1.922-6.213 5.814-6.213zm9.495.375v7.268c0 2.603 1.149 3.282 2.954 3.282 2.438 0 3.821-2.18 3.821-6.072v-4.478h1.876v11.723h-1.876v-2.978c-.703 2.087-2.086 3.353-4.36 3.353-2.954 0-4.29-1.548-4.29-4.619v-7.479h1.875zm36.972-.398c3.071 0 4.83 1.547 4.97 3.75h-1.852c-.117-1.218-1.008-2.32-3.165-2.32-1.993 0-2.813.797-2.813 1.946 0 .82.422 1.524 1.899 1.735l2.485.351c2.696.399 3.68 1.548 3.68 3.47 0 2.391-1.664 3.564-4.782 3.564-3.822 0-5.369-1.83-5.416-4.29h1.735c.14 1.593 1.032 2.86 3.728 2.86 2.063 0 2.883-.727 2.883-2.04 0-1.125-.656-1.735-2.133-1.946l-2.72-.399c-2.04-.281-3.188-1.36-3.188-3.164 0-2.18 1.735-3.517 4.689-3.517zM111.706 18l5.158 13.832L121.998 18h3.353v15.59h-1.946V19.455l-5.251 14.137h-2.626l-5.275-14.137V33.59h-1.946V18h3.4zm82.455 3.493c2.672 0 3.961 1.548 3.961 4.548v7.55h-1.875v-7.339c0-2.367-.961-3.188-2.673-3.188-2.555 0-3.704 2.016-3.704 6.049v4.478h-1.828v-7.339c0-2.367-.985-3.188-2.697-3.188-2.508 0-3.68 2.016-3.68 6.049v4.478h-1.876V21.868h1.876v2.884c.68-2.016 2.016-3.259 4.266-3.259 2.275 0 3.517 1.126 3.845 3.306.68-2.063 2.04-3.306 4.385-3.306zm-35.448 1.43c-2.228 0-3.681 1.055-3.939 3.822h7.596c-.094-2.696-1.477-3.822-3.657-3.822z" id="Combined-Shape"/></g></g></svg>